<svg width="192" height="61" viewBox="0 0 192 61" fill="none" xmlns="http://www.w3.org/2000/svg">
<path d="M16.2533 46.6875C26.0053 46.6875 32.374 38.9689 32.374 30.3349C32.374 21.6352 26.0053 13.8513 16.2533 13.8513C10.3491 13.8513 5.90426 16.5331 3.25067 20.1307V0.115051H0V45.9025H3.25067V40.4735C5.90426 44.0711 10.3491 46.6875 16.2533 46.6875ZM15.5899 43.744C10.2164 43.744 5.3072 40.5389 3.25067 36.091V24.5132C5.37355 20.1962 10.15 16.7948 15.5899 16.7948C23.2853 16.7948 29.0569 22.6817 29.0569 30.3349C29.0569 37.857 23.2853 43.744 15.5899 43.744Z" fill="#191919"/>
<path d="M41.1877 45.9025H44.4383V25.3636C46.1633 21.5698 50.6745 17.1218 57.2419 17.1218V13.8513C51.4704 13.8513 46.5612 17.4489 44.4383 21.1119V14.6362H41.1877V45.9025Z" fill="#191919"/>
<path d="M64.5167 45.9025H67.7674V14.6362H64.5167V45.9025ZM63.4553 3.64719C63.4553 5.08622 64.6494 6.26363 66.1088 6.26363C67.5684 6.26363 68.7624 5.08622 68.7624 3.64719C68.7624 2.20816 67.5684 1.03076 66.1088 1.03076C64.6494 1.03076 63.4553 2.20816 63.4553 3.64719Z" fill="#191919"/>
<path d="M90.1827 46.6875C97.48 46.6875 103.384 43.4823 103.384 37.7916C103.384 31.5776 97.0819 30.0078 90.9787 28.5686C86.0697 27.3913 81.2931 26.3447 81.2931 22.3546C81.2931 19.215 84.0795 16.7948 90.5145 16.7948C94.7602 16.7948 98.9396 18.2338 101.792 19.9999V16.7294C99.006 14.9633 94.4285 13.8513 90.3154 13.8513C82.2881 13.8513 78.0424 17.2527 78.0424 22.3546C78.0424 27.9147 83.3497 29.8116 89.3202 31.2505C95.6225 32.7549 100.067 33.9979 100.067 37.7262C100.067 41.52 96.1533 43.744 90.1164 43.744C84.212 43.744 79.2366 41.4546 77.0474 39.9502V43.3515C79.4356 44.9869 84.4773 46.6875 90.1827 46.6875Z" fill="#191919"/>
<path d="M112.405 45.9025H115.656V30.0078L134.363 45.9025H139.206L119.105 28.7649L136.818 14.6362H132.108L115.656 27.7838V0.115051H112.405V45.9025Z" fill="#191919"/>
<path d="M153.042 46.6875C154.501 46.6875 156.027 46.4913 157.354 45.7717V42.6975C156.359 43.286 155.298 43.6131 154.037 43.6131C150.985 43.6131 149.393 41.9779 149.393 38.642V0.115051H146.143V39.3614C146.143 45.1829 149.858 46.6875 153.042 46.6875Z" fill="#191919"/>
<path d="M165.066 59.2464C170.174 59.2464 173.226 55.4526 176.012 49.4346L192 14.6362H188.418L176.211 41.4546L163.606 14.6362H159.958L174.619 45.3138C171.435 52.3782 169.179 56.3028 164.668 56.3028C163.009 56.3028 161.683 55.9757 160.422 55.2563V58.2651C161.484 58.9847 163.208 59.2464 165.066 59.2464Z" fill="#191919"/>
<path d="M66.3847 7.38142C68.452 7.38142 70.1279 5.72903 70.1279 3.69071C70.1279 1.65239 68.452 0 66.3847 0C64.3175 0 62.6416 1.65239 62.6416 3.69071C62.6416 5.72903 64.3175 7.38142 66.3847 7.38142Z" fill="#797979"/>
</svg>
