<svg width="192" height="61" viewBox="0 0 192 61" fill="none" xmlns="http://www.w3.org/2000/svg">
<path d="M16.2533 46.6875C26.0053 46.6875 32.374 38.9689 32.374 30.3349C32.374 21.6352 26.0053 13.8513 16.2533 13.8513C10.3491 13.8513 5.90426 16.5331 3.25067 20.1307V0.115051H0V45.9025H3.25067V40.4735C5.90426 44.0711 10.3491 46.6875 16.2533 46.6875ZM15.5899 43.744C10.2164 43.744 5.3072 40.5389 3.25067 36.091V24.5132C5.37355 20.1962 10.15 16.7948 15.5899 16.7948C23.2853 16.7948 29.0569 22.6817 29.0569 30.3349C29.0569 37.857 23.2853 43.744 15.5899 43.744Z" fill="white"/>
<path d="M41.1879 45.9025H44.4384V25.3636C46.1634 21.5698 50.6746 17.1218 57.242 17.1218V13.8513C51.4705 13.8513 46.5613 17.4489 44.4384 21.1119V14.6362H41.1879V45.9025Z" fill="white"/>
<path d="M64.5167 45.9025H67.7674V14.6362H64.5167V45.9025ZM63.4553 3.64719C63.4553 5.08622 64.6494 6.26363 66.1088 6.26363C67.5684 6.26363 68.7624 5.08622 68.7624 3.64719C68.7624 2.20816 67.5684 1.03076 66.1088 1.03076C64.6494 1.03076 63.4553 2.20816 63.4553 3.64719Z" fill="white"/>
<path d="M90.1826 46.6875C97.4799 46.6875 103.384 43.4823 103.384 37.7916C103.384 31.5776 97.0818 30.0078 90.9785 28.5686C86.0695 27.3913 81.293 26.3447 81.293 22.3546C81.293 19.215 84.0794 16.7948 90.5143 16.7948C94.7601 16.7948 98.9395 18.2338 101.792 19.9999V16.7294C99.0059 14.9633 94.4284 13.8513 90.3153 13.8513C82.288 13.8513 78.0422 17.2527 78.0422 22.3546C78.0422 27.9147 83.3495 29.8116 89.3201 31.2505C95.6224 32.7549 100.067 33.9979 100.067 37.7262C100.067 41.52 96.1532 43.744 90.1163 43.744C84.2118 43.744 79.2365 41.4546 77.0472 39.9502V43.3515C79.4355 44.9869 84.4772 46.6875 90.1826 46.6875Z" fill="white"/>
<path d="M112.405 45.9025H115.656V30.0078L134.364 45.9025H139.206L119.105 28.7649L136.818 14.6362H132.108L115.656 27.7838V0.115051H112.405V45.9025Z" fill="white"/>
<path d="M153.042 46.6875C154.501 46.6875 156.027 46.4913 157.354 45.7717V42.6975C156.359 43.286 155.298 43.6131 154.037 43.6131C150.985 43.6131 149.393 41.9779 149.393 38.642V0.115051H146.143V39.3614C146.143 45.1829 149.858 46.6875 153.042 46.6875Z" fill="white"/>
<path d="M165.066 59.2464C170.174 59.2464 173.226 55.4526 176.012 49.4346L192 14.6362H188.418L176.211 41.4546L163.606 14.6362H159.958L174.619 45.3138C171.435 52.3782 169.179 56.3028 164.668 56.3028C163.009 56.3028 161.683 55.9757 160.422 55.2563V58.2651C161.484 58.9847 163.208 59.2464 165.066 59.2464Z" fill="white"/>
<path d="M66.3849 7.38142C68.4522 7.38142 70.128 5.72903 70.128 3.69071C70.128 1.65239 68.4522 0 66.3849 0C64.3176 0 62.6417 1.65239 62.6417 3.69071C62.6417 5.72903 64.3176 7.38142 66.3849 7.38142Z" fill="#ccc"/>
</svg>
