<svg width="340" height="153" viewBox="0 0 340 153" fill="none" xmlns="http://www.w3.org/2000/svg">
<g clip-path="url(#clip0_898_22)">
<path d="M69.1 119H15.9C7.1 119 0 111.9 0 103.1V49.9C0 41.1 7.1 34 15.9 34H69C77.8 34 84.9 41.1 84.9 49.9V103C85 111.9 77.9 119 69.1 119ZM15.9 35.7C8 35.7 1.7 42.1 1.7 49.9V103C1.7 110.9 8.1 117.2 15.9 117.2H69C76.9 117.2 83.2 110.8 83.2 103V49.9C83.2 42 76.8 35.7 69 35.7H15.9Z" fill="white"/>
<path d="M21.2 55.2H29.7V63.7H38.1999V72.1999H46.6999V80.6999H38.1999V89.1999H29.7V97.6999H21.2V80.6999H29.7V72.1999H21.2V55.2Z" fill="white"/>
<path d="M46.7 89.2V80.7H55.2V89.2H46.7Z" fill="white"/>
<path d="M55.2 89.2H63.7V97.7H55.2V89.2Z" fill="white"/>
<path d="M46.7 89.2H38.2V97.7H46.7V89.2Z" fill="white"/>
<path d="M55.2 80.6999V72.1999H46.7V63.7H38.2V55.2H55.2V63.7H63.7V80.6999H55.2Z" fill="white"/>
<path d="M108.661 91V63H112.941L125.181 83.44H122.941L134.981 63H139.261L139.301 91H134.381L134.341 70.72H135.381L125.141 87.8H122.821L112.421 70.72H113.621V91H108.661ZM155.984 91.28C153.797 91.28 151.851 90.8133 150.144 89.88C148.437 88.92 147.091 87.6133 146.104 85.96C145.117 84.3067 144.624 82.4267 144.624 80.32C144.624 78.1867 145.117 76.3067 146.104 74.68C147.091 73.0267 148.437 71.7333 150.144 70.8C151.851 69.8667 153.797 69.4 155.984 69.4C158.197 69.4 160.157 69.8667 161.864 70.8C163.597 71.7333 164.944 73.0133 165.904 74.64C166.891 76.2667 167.384 78.16 167.384 80.32C167.384 82.4267 166.891 84.3067 165.904 85.96C164.944 87.6133 163.597 88.92 161.864 89.88C160.157 90.8133 158.197 91.28 155.984 91.28ZM155.984 87C157.211 87 158.304 86.7333 159.264 86.2C160.224 85.6667 160.971 84.8933 161.504 83.88C162.064 82.8667 162.344 81.68 162.344 80.32C162.344 78.9333 162.064 77.7467 161.504 76.76C160.971 75.7467 160.224 74.9733 159.264 74.44C158.304 73.9067 157.224 73.64 156.024 73.64C154.797 73.64 153.704 73.9067 152.744 74.44C151.811 74.9733 151.064 75.7467 150.504 76.76C149.944 77.7467 149.664 78.9333 149.664 80.32C149.664 81.68 149.944 82.8667 150.504 83.88C151.064 84.8933 151.811 85.6667 152.744 86.2C153.704 86.7333 154.784 87 155.984 87ZM181.205 91.28C179.152 91.28 177.299 90.8267 175.645 89.92C174.019 88.9867 172.739 87.7067 171.805 86.08C170.872 84.4533 170.405 82.5333 170.405 80.32C170.405 78.1067 170.872 76.1867 171.805 74.56C172.739 72.9333 174.019 71.6667 175.645 70.76C177.299 69.8533 179.152 69.4 181.205 69.4C182.992 69.4 184.592 69.8 186.005 70.6C187.419 71.3733 188.539 72.56 189.365 74.16C190.192 75.76 190.605 77.8133 190.605 80.32C190.605 82.8 190.205 84.8533 189.405 86.48C188.605 88.08 187.499 89.28 186.085 90.08C184.672 90.88 183.045 91.28 181.205 91.28ZM181.805 87C183.005 87 184.072 86.7333 185.005 86.2C185.965 85.6667 186.725 84.8933 187.285 83.88C187.872 82.8667 188.165 81.68 188.165 80.32C188.165 78.9333 187.872 77.7467 187.285 76.76C186.725 75.7467 185.965 74.9733 185.005 74.44C184.072 73.9067 183.005 73.64 181.805 73.64C180.605 73.64 179.525 73.9067 178.565 74.44C177.632 74.9733 176.872 75.7467 176.285 76.76C175.725 77.7467 175.445 78.9333 175.445 80.32C175.445 81.68 175.725 82.8667 176.285 83.88C176.872 84.8933 177.632 85.6667 178.565 86.2C179.525 86.7333 180.605 87 181.805 87ZM188.285 91V85.96L188.485 80.28L188.085 74.6V61.32H193.045V91H188.285ZM208.666 91.28C206.853 91.28 205.253 90.9467 203.866 90.28C202.48 89.5867 201.4 88.5467 200.626 87.16C199.853 85.7467 199.466 83.9733 199.466 81.84V69.64H204.466V81.16C204.466 83.08 204.893 84.52 205.746 85.48C206.626 86.4133 207.866 86.88 209.466 86.88C210.64 86.88 211.653 86.64 212.506 86.16C213.386 85.68 214.066 84.96 214.546 84C215.053 83.04 215.306 81.8533 215.306 80.44V69.64H220.306V91H215.546V85.24L216.386 87C215.666 88.3867 214.613 89.4533 213.226 90.2C211.84 90.92 210.32 91.28 208.666 91.28ZM226.853 91V61.32H231.853V91H226.853ZM250.255 91.28C248.442 91.28 246.829 90.88 245.415 90.08C244.002 89.28 242.882 88.08 242.055 86.48C241.255 84.8533 240.855 82.8 240.855 80.32C240.855 77.8133 241.269 75.76 242.095 74.16C242.949 72.56 244.082 71.3733 245.495 70.6C246.935 69.8 248.522 69.4 250.255 69.4C252.362 69.4 254.215 69.8533 255.815 70.76C257.442 71.6667 258.722 72.9333 259.655 74.56C260.615 76.1867 261.095 78.1067 261.095 80.32C261.095 82.5333 260.615 84.4533 259.655 86.08C258.722 87.7067 257.442 88.9867 255.815 89.92C254.215 90.8267 252.362 91.28 250.255 91.28ZM238.415 91V61.32H243.415V74.6L243.015 80.28L243.175 85.96V91H238.415ZM249.695 87C250.895 87 251.962 86.7333 252.895 86.2C253.855 85.6667 254.615 84.8933 255.175 83.88C255.735 82.8667 256.015 81.68 256.015 80.32C256.015 78.9333 255.735 77.7467 255.175 76.76C254.615 75.7467 253.855 74.9733 252.895 74.44C251.962 73.9067 250.895 73.64 249.695 73.64C248.495 73.64 247.415 73.9067 246.455 74.44C245.495 74.9733 244.735 75.7467 244.175 76.76C243.615 77.7467 243.335 78.9333 243.335 80.32C243.335 81.68 243.615 82.8667 244.175 83.88C244.735 84.8933 245.495 85.6667 246.455 86.2C247.415 86.7333 248.495 87 249.695 87ZM278.724 91V86.68L278.444 85.76V78.2C278.444 76.7333 278.004 75.6 277.124 74.8C276.244 73.9733 274.91 73.56 273.124 73.56C271.924 73.56 270.737 73.7467 269.564 74.12C268.417 74.4933 267.444 75.0133 266.644 75.68L264.684 72.04C265.83 71.16 267.19 70.5067 268.764 70.08C270.364 69.6267 272.017 69.4 273.724 69.4C276.817 69.4 279.204 70.1467 280.884 71.64C282.59 73.1067 283.444 75.3867 283.444 78.48V91H278.724ZM272.004 91.28C270.404 91.28 269.004 91.0133 267.804 90.48C266.604 89.92 265.67 89.16 265.004 88.2C264.364 87.2133 264.044 86.1067 264.044 84.88C264.044 83.68 264.324 82.6 264.884 81.64C265.47 80.68 266.417 79.92 267.724 79.36C269.03 78.8 270.764 78.52 272.924 78.52H279.124V81.84H273.284C271.577 81.84 270.43 82.12 269.844 82.68C269.257 83.2133 268.964 83.88 268.964 84.68C268.964 85.5867 269.324 86.3067 270.044 86.84C270.764 87.3733 271.764 87.64 273.044 87.64C274.27 87.64 275.364 87.36 276.324 86.8C277.31 86.24 278.017 85.4133 278.444 84.32L279.284 87.32C278.804 88.5733 277.937 89.5467 276.684 90.24C275.457 90.9333 273.897 91.28 272.004 91.28ZM301.981 69.4C303.687 69.4 305.207 69.7333 306.541 70.4C307.901 71.0667 308.967 72.0933 309.741 73.48C310.514 74.84 310.901 76.6 310.901 78.76V91H305.901V79.4C305.901 77.5067 305.447 76.0933 304.541 75.16C303.661 74.2267 302.421 73.76 300.821 73.76C299.647 73.76 298.607 74 297.701 74.48C296.794 74.96 296.087 75.68 295.581 76.64C295.101 77.5733 294.861 78.76 294.861 80.2V91H289.861V69.64H294.621V75.4L293.781 73.64C294.527 72.28 295.607 71.24 297.021 70.52C298.461 69.7733 300.114 69.4 301.981 69.4ZM321.324 86.24L321.444 79.96L332.604 69.64H338.604L329.124 79.16L326.484 81.36L321.324 86.24ZM317.244 91V61.32H322.244V91H317.244ZM333.364 91L325.564 81.36L328.724 77.36L339.444 91H333.364Z" fill="white"/>
</g>
<defs>
<clipPath id="clip0_898_22">
<rect width="339.901" height="153" fill="white"/>
</clipPath>
</defs>
</svg>
