<svg width="223" height="84" viewBox="0 0 223 84" fill="none" xmlns="http://www.w3.org/2000/svg">
<path d="M98 74.8H92C91.8 74.8 91.7 74.6 91.7 74.5V56.4C91.8 56.1 91.8 55.7 91.7 55.4C91.4 53.7 89.8 52.6 88.1 52.8C86.4 53.1 85.3 54.7 85.5 56.4V79C85.5 79.9 86.2 80.7 87.2 80.8H98C98.1 80.8 98.2 80.8 98.3 80.8C99.9 80.7 101.1 79.3 101 77.7C101 75.8 99.7 74.7 98 74.8ZM76.3 54.3L60.3 75.9C59.9 76.4 59.7 77 59.7 77.7C59.7 78.6 60.1 79.6 61 80.1C62.4 81 64.1 80.7 65.1 79.5L68.2 75.3H75.7V77.7C75.8 79.4 77.2 80.7 78.8 80.6C80.5 80.6 81.7 79.2 81.7 77.7V56.3C81.7 55.4 81.3 54.5 80.7 54C79.4 52.8 77.4 52.9 76.3 54.3ZM75.6 69.2H72.8C72.7 69.2 72.6 69.1 72.6 69L75.6 64.9C75.6 64.8 75.6 69.2 75.6 69.2ZM67.5 56.4C67.5 54.8 66.2 53.5 64.7 53.5C63.9 53.5 63.1 53.8 62.6 54.3L55.8 61.4C55.7 61.5 55.6 61.5 55.5 61.5C55.4 61.5 55.3 61.5 55.3 61.4L48.5 54.3C48 53.8 47.2 53.4 46.4 53.4C44.8 53.4 43.6 54.7 43.6 56.2C43.6 56.9 43.9 57.7 44.3 58.2L52.6 67.7L52.7 77.7C52.7 79.3 54 80.6 55.6 80.6C57.2 80.6 58.5 79.3 58.5 77.7L58.7 67.8L66.8 58.3C67.3 57.7 67.5 57 67.5 56.4ZM32.4 53.4C24.9 53.4 18.8 59.5 18.8 67C18.8 74.5 24.9 80.6 32.4 80.6C39.9 80.6 46 74.4 46 66.9C46 59.6 39.9 53.5 32.4 53.4ZM32.4 74.2C28.3 74.2 25.1 71 25.1 66.9C25.1 62.8 28.3 59.6 32.4 59.6C36.5 59.6 39.7 62.8 39.7 66.9C39.7 71 36.5 74.2 32.4 74.2ZM175.9 52.8C174.4 52.9 173.2 54.1 173.2 55.5V68.2C173.2 68.3 173.1 68.4 173 68.4C172.9 68.4 172.9 68.4 172.9 68.3L165.5 55.2C164.4 53.2 161.8 52.6 159.9 53.8C158.8 54.5 158 55.8 157.9 57.1V77.9C158 79.6 159.5 80.8 161 80.7C162.5 80.6 163.7 79.4 163.8 77.9V65.2C163.8 65.1 163.9 65 164 65C164.1 65 164.1 65 164.1 65.1L171.7 78.5C172.7 80.4 175.1 81 177 80C178.3 79.3 179 78 179 76.7V55.6C178.9 54 177.6 52.7 175.9 52.8ZM14 69.5C16.4 68 18 65.4 17.9 62.6C17.9 62.6 17.9 62.6 17.9 62.5C18 57.6 14 53.5 9.1 53.4C6.7 53.2 4.2 54 2.5 55.7C0.6 57.6 0 60 0 62.6L0.4 77.7C0.4 79.3 1.7 80.6 3.3 80.6C4.9 80.6 6.2 79.3 6.2 77.7L6.3 70.5C6.3 70.3 6.4 70.2 6.6 70.2C6.6 70.2 6.7 70.2 6.8 70.2L13.9 79.9C14.4 80.4 15 80.6 15.8 80.6C17.4 80.6 18.6 79.3 18.7 77.8C18.7 77.4 18.6 77 18.4 76.5L14 69.5ZM8.9 65.3C8.7 65.3 8.6 65.3 8.4 65.3C6.7 65.2 5.6 63.7 5.7 62.2C5.8 60.5 7.3 59.4 8.8 59.5C9 59.5 9.1 59.5 9.3 59.5C11 59.6 12.1 61.1 12 62.6C11.9 64.2 10.4 65.7 8.9 65.3ZM129.8 71.5C129.4 71.5 128.9 71.6 128.4 71.8L126 73.4C124.9 74.1 123.5 74.5 122.1 74.5C117.9 74.3 114.8 70.7 115 66.7C115.2 62.8 118.2 59.8 122.1 59.6C123.5 59.6 124.8 60 126 60.7L128.3 62.3C128.7 62.5 129.1 62.6 129.7 62.6C131.3 62.6 132.6 61.3 132.6 59.7C132.6 59.1 132.4 58.3 131.9 57.8C129.6 55.1 126.2 53.5 122.5 53.5C115 53.5 108.9 59.6 108.9 67.1C108.9 74.3 114.5 80.3 121.7 80.7C125.6 80.7 129.2 79.1 131.9 76.3C132.3 75.8 132.6 75.2 132.5 74.4C132.8 72.8 131.4 71.5 129.8 71.5ZM185.4 52.7C183.6 52.7 182.3 54.2 182.3 55.8V77.7C182.3 79.5 183.8 80.8 185.4 80.8C187.2 80.8 188.5 79.3 188.5 77.7V55.8C188.5 54.1 187.2 52.7 185.4 52.7ZM139.9 54.2C139.3 53.6 138.4 53.2 137.5 53.2C135.7 53.2 134.4 54 134.4 55.8V77.7C134.4 79.4 135.8 80.6 137.4 80.6C139 80.6 140.4 79.3 140.5 77.7V75.3H148L151.1 79.5C151.6 80.2 152.6 80.6 153.5 80.6C155.2 80.6 156.4 79.2 156.4 77.7C156.4 77.1 156.2 76.4 155.8 75.9L139.9 54.2ZM143.5 69C143.5 69.1 143.4 69.2 143.3 69.2H140.5V64.7L143.5 68.9C143.6 68.9 143.6 68.9 143.5 69ZM209.9 52.8C208.4 52.9 207.2 54.1 207.2 55.5V68.2C207.2 68.3 207.1 68.4 207 68.4C206.9 68.4 206.9 68.4 206.8 68.3L199.5 55.2C198.4 53.2 195.8 52.6 193.9 53.8C192.8 54.5 192 55.8 191.9 57.1V77.9C191.9 79.6 193.3 80.9 194.9 80.9C196.5 80.9 197.9 79.5 197.9 77.9V65.2C197.9 65.1 198 65 198.1 65C198.2 65 198.2 65 198.2 65.1L205.8 78.5C206.8 80.4 209.2 81 211.1 80C212.4 79.3 213.1 78 213.1 76.7V55.6C212.9 54 211.5 52.7 209.9 52.8ZM220.7 55.3C220.7 55.2 220.7 55.2 220.7 55.1C220.7 54.3 220.1 54.1 219.4 54.1H218.5C218.2 54.1 218.1 54.3 218.1 54.4V57.1C218.1 57.4 218.2 57.5 218.5 57.5C218.8 57.5 218.9 57.3 218.9 57.1V56.1H219.1L219.6 57.1C219.7 57.3 219.8 57.5 220.1 57.5C220.4 57.5 220.5 57.4 220.5 57.2C220.5 57.1 220.5 57.1 220.5 57L219.9 56.1C220.3 56.2 220.7 55.7 220.7 55.3ZM219.5 55.5H218.9V54.7H219.5C219.8 54.7 220 54.8 220 55.1C220 55.4 219.8 55.5 219.5 55.5ZM219.4 52.6C217.6 52.6 216.2 54.1 216.2 55.8C216.2 57.5 217.7 59 219.4 59C221.1 59 222.6 57.5 222.6 55.8C222.5 54.1 221.1 52.6 219.4 52.6ZM219.4 58.2C218 58.2 217 57.2 217 55.8C217 54.4 218 53.4 219.4 53.4C220.8 53.4 221.8 54.4 221.8 55.8C221.8 57.1 220.7 58.2 219.4 58.2Z" fill="#191919"/>
<path d="M132.7 38.8C126.3 34.1 116.7 31.3 106.8 31.3C96.9 31.3 87.2 34.1 80.9 38.8C80.3 39.2 80 39.9 80 40.7C80 42.1 81 43.1 82.4 43.1C82.9 43.1 83.4 42.9 83.9 42.6C88.2 39.4 96.5 36 107 36C117.5 36 125.7 39.4 130 42.6L130.1 42.7C131.1 43.4 132.7 43.2 133.4 42.1C134 41 133.8 39.5 132.7 38.8ZM106.8 37C97.6 37 88.9 39.7 83.5 44.2C83.5 44.2 83.5 44.2 83.4 44.2C82.8 44.8 82.7 45.8 83.2 46.5C83.5 46.9 83.9 47.1 84.5 47.1C84.9 47.1 85.2 47 85.5 46.7C90.3 42.7 98.3 40.2 106.7 40.2C115.1 40.2 123 42.6 127.9 46.7C128.6 47.3 129.7 47.2 130.2 46.5C130.8 45.8 130.7 44.7 130 44.2C124.6 39.8 115.9 37 106.8 37ZM77 19.7C77.7 16.8 76 13.9 73 13C72.6 12.9 72.1 12.8 71.6 12.8C68.6 12.8 66.2 15.2 66.2 18.2C66.2 21.2 68.6 23.6 71.6 23.6C74.3 23.8 76.4 22.1 77 19.7ZM106.8 28.1C109.8 28.1 112.2 25.7 112.2 22.7C112.2 19.7 109.8 17.3 106.8 17.3C103.8 17.3 101.4 19.7 101.4 22.7C101.4 25.7 103.7 28.1 106.8 28.1ZM106.8 14.3C109.8 14.3 112.2 11.9 112.2 8.90002C112.2 5.90002 109.8 3.40002 106.8 3.40002C103.8 3.40002 101.4 5.80002 101.4 8.80002C101.3 11.9 103.7 14.3 106.8 14.3ZM90.8 19.2C87.9 20 86.2 23.1 87 26C87.6 28.3 89.8 29.9 92.2 30H92.3C92.7 30 93.2 29.9 93.7 29.8C96.6 29 98.3 26 97.6 23.1C97 20.7 94.8 19 92.3 19C91.7 19 91.3 19.1 90.8 19.2ZM84 31.5C84.7 28.6 83 25.5 80 24.8C79.6 24.7 79.1 24.6 78.6 24.6C77.7 24.6 76.7 24.9 75.8 25.3C74.5 26 73.6 27.3 73.3 28.6C72.9 30.1 73.1 31.5 73.9 32.8C74.8 34.5 76.6 35.4 78.6 35.5C79.5 35.5 80.6 35.3 81.4 34.8C82.7 34.1 83.7 32.9 84 31.5ZM119.9 29.7C120.4 29.8 120.8 29.9 121.4 29.9C124.4 29.9 126.8 27.4 126.8 24.5C126.8 22 125.1 19.9 122.8 19.3C122.3 19.2 121.9 19.1 121.3 19.1C118.3 19.1 115.9 21.6 115.9 24.6C115.8 26.9 117.5 29.1 119.9 29.7ZM123.5 16.5C123.9 16.6 124.4 16.7 125 16.7C128 16.7 130.4 14.2 130.4 11.3C130.4 8.80002 128.7 6.70002 126.4 6.10002C125.9 6.00002 125.5 5.90002 124.9 5.90002C121.9 5.90002 119.5 8.40002 119.5 11.4C119.5 13.6 121.2 15.8 123.5 16.5ZM137.7 25.4C136.9 24.9 135.9 24.7 135 24.7C132 24.7 129.6 27.1 129.6 30.1C129.6 30.5 129.7 31 129.8 31.5C130.1 32.9 131.1 34.1 132.3 34.8C134.9 36.4 138.3 35.4 139.8 32.8C140.5 31.5 140.7 30.1 140.4 28.6C139.8 27.4 138.9 26.2 137.7 25.4ZM147.2 17C146.9 15.6 145.9 14.4 144.7 13.7C142.1 12.1 138.7 13.1 137.2 15.7C136.5 17 136.3 18.4 136.6 19.9C136.9 21.3 137.9 22.5 139.1 23.2C141.7 24.8 145.1 23.9 146.6 21.3C147.4 19.9 147.6 18.2 147.2 17ZM88.7 16.7C89.2 16.7 89.7 16.6 90.2 16.5C93.1 15.7 94.8 12.6 94.1 9.80002C93.5 7.40002 91.3 5.80002 88.9 5.80002C88.4 5.80002 88 5.90002 87.4 6.00002C84.5 6.80002 82.8 9.90002 83.5 12.7C84.1 15 86.2 16.7 88.7 16.7Z" fill="#191919"/>
</svg>
