<svg width="296" height="39" viewBox="0 0 296 39" fill="none" xmlns="http://www.w3.org/2000/svg">
<g clip-path="url(#clip0_902_6)">
<path d="M170.901 12.012L160.463 0L166.383 27.3L187.882 0L170.901 12.012ZM31.6253 23.868L45.9579 7.644L29.9116 14.04L0 7.8L31.6253 23.868Z" fill="#797979"/>
<path d="M159.84 7.02001L153.608 29.328H164.514L159.84 7.02001ZM185.078 7.02001L168.253 29.328H178.846L185.078 7.02001ZM288.678 9.36001C286.902 9.3951 285.172 9.93623 283.693 10.92C282.996 11.4658 282.368 12.0944 281.823 12.792L282.446 9.82801H275.903L268.893 34.944H276.215L278.551 27.144C279.175 28.704 280.577 29.64 282.446 29.64H283.693C285.562 29.328 287.431 28.548 289.301 27.3C290.391 26.52 291.482 25.428 292.417 24.18C293.196 22.932 293.975 21.216 294.442 19.5C295.221 16.692 295.221 14.352 294.286 12.324C293.351 10.452 291.482 9.36001 288.678 9.36001ZM287.12 19.5C286.653 20.904 286.029 21.996 285.25 22.62C284.783 23.244 284.316 23.4 283.693 23.712C283.279 23.7717 282.86 23.7717 282.446 23.712C281.356 23.712 280.888 23.556 280.421 22.62C280.109 21.84 280.109 20.748 280.421 19.5C280.888 17.628 281.667 16.692 282.29 16.224C282.602 15.756 283.537 14.976 284.783 14.976C286.808 14.976 287.899 16.536 286.964 19.656M127.747 9.36001C126.025 9.42412 124.353 9.96402 122.918 10.92C122.166 11.4557 121.486 12.0847 120.893 12.792L121.671 9.82801H114.973L107.962 34.944H115.284L117.465 27.144C118.244 28.704 119.646 29.64 121.516 29.64H122.762C124.631 29.328 126.501 28.548 128.37 27.3C129.461 26.52 130.396 25.428 131.33 24.18C132.109 22.932 132.888 21.216 133.511 19.5C134.29 16.692 134.135 14.352 133.356 12.324C132.421 10.452 130.551 9.36001 127.591 9.36001M126.034 19.5C125.722 20.904 125.099 21.996 124.32 22.62C123.853 23.244 123.229 23.4 122.762 23.712C122.298 23.7877 121.824 23.7877 121.36 23.712C120.269 23.712 119.802 23.556 119.49 22.62C119.023 21.84 119.023 20.748 119.49 19.5C119.958 17.628 120.737 16.692 121.36 16.224C121.671 15.756 122.606 14.976 123.853 14.976C125.878 14.976 126.968 16.536 126.034 19.656M0.623047 37.908L19.3178 30.42L54.5262 38.22L17.1367 19.032L0.623047 37.908ZM28.042 1.56001C27.3869 1.59972 26.746 1.76858 26.1563 2.05688C25.5665 2.34519 25.0393 2.74728 24.6051 3.24007C24.1709 3.73286 23.8381 4.30666 23.6259 4.92855C23.4136 5.55044 23.3261 6.20817 23.3683 6.86401C23.6799 9.51601 26.1725 11.544 28.8209 11.544C29.4903 11.5051 30.1449 11.3314 30.7456 11.0333C31.3464 10.7352 31.8809 10.3189 32.3172 9.80914C32.7535 9.29941 33.0827 8.70678 33.285 8.06672C33.4873 7.42665 33.5586 6.7523 33.4946 6.08401C33.4558 5.41378 33.2823 4.75828 32.9846 4.15673C32.687 3.55517 32.2711 3.01993 31.7621 2.58302C31.2531 2.1461 30.6612 1.8165 30.022 1.61391C29.3828 1.41133 28.7094 1.33994 28.042 1.40401M262.194 23.712C261.831 24.1964 261.36 24.5895 260.82 24.8603C260.279 25.131 259.682 25.272 259.078 25.272C257.831 25.272 257.208 24.96 256.585 24.336C256.118 23.556 255.962 22.776 256.274 21.528H270.295C271.385 18.096 271.385 15.132 269.983 12.948C268.737 10.764 266.4 9.51601 262.817 9.51601L260.947 9.67201C258.197 10.0907 255.627 11.3019 253.553 13.1578C251.478 15.0138 249.987 17.4343 249.263 20.124C248.484 23.244 248.951 25.584 250.354 27.456C251.911 29.016 254.093 29.952 257.208 29.952C259.501 29.9768 261.777 29.5529 263.907 28.704C266.229 27.694 268.148 25.9373 269.36 23.712H262.194ZM260.947 14.352H261.882C262.817 14.352 263.44 14.664 263.751 15.288C264.219 15.912 264.375 16.848 264.219 17.784H257.52C257.987 15.912 259.078 14.664 260.947 14.352ZM203.928 10.14C202.682 9.82801 200.968 9.51601 198.787 9.51601C197.27 9.52765 195.757 9.68436 194.269 9.98401C192.711 10.296 191.465 10.764 190.375 11.232C189.458 11.7443 188.655 12.4367 188.012 13.2678C187.37 14.0988 186.901 15.0513 186.636 16.068H193.958L194.269 15.6C194.425 15.132 195.048 14.664 195.516 14.508C196.01 14.3059 196.539 14.2 197.074 14.196C197.697 14.196 198.164 14.196 198.631 14.508C199.099 14.508 199.41 15.288 199.255 15.756C198.943 16.536 198.008 17.16 196.606 17.316L189.284 18.564C188.358 18.8132 187.468 19.1802 186.636 19.656C186.013 20.124 185.234 20.592 184.61 21.372C183.987 22.152 183.52 22.932 183.208 24.18C182.741 26.052 183.053 27.456 184.143 28.548C185.078 29.484 186.48 29.952 188.194 29.952C191.032 30.0879 193.816 29.14 195.983 27.3L195.671 29.328H203.461C203.461 29.328 202.838 29.016 203.149 28.08L206.109 17.628L206.733 14.352C206.733 13.416 206.733 12.636 206.265 11.856C205.954 11.076 205.175 10.608 203.928 10.296M196.139 24.336C195.635 24.9083 194.991 25.3386 194.269 25.584H193.023C191.309 25.584 190.686 25.116 190.842 24.024C191.154 23.556 191.465 22.932 191.933 22.62L193.49 21.996L195.516 21.684L197.697 21.06C197.541 22.308 197.074 23.4 196.139 24.336ZM218.884 23.868C218.576 24.1708 218.21 24.4094 217.809 24.57C217.408 24.7307 216.979 24.8102 216.547 24.804C215.457 24.804 214.834 24.336 214.522 23.4C214.21 22.62 214.21 21.06 214.834 19.188C214.989 18.72 215.613 17.16 216.236 16.536C216.547 15.912 217.015 15.444 217.638 15.132C218.105 14.82 218.728 14.664 219.351 14.664C220.286 14.664 220.754 14.976 221.065 15.444C221.533 15.912 221.533 16.536 221.377 17.472H228.855C229.322 14.664 228.699 12.48 227.141 11.232C225.583 10.14 223.402 9.67201 220.909 9.67201C217.794 9.67201 214.989 10.452 212.497 12.324C209.973 14.2202 208.162 16.9134 207.356 19.968C206.421 23.088 206.733 25.584 208.29 27.456C209.848 29.016 212.029 29.952 215.145 29.952C217.704 29.9523 220.222 29.3086 222.467 28.08C223.645 27.4384 224.699 26.5934 225.583 25.584C226.518 24.648 227.141 23.4 227.764 21.84H220.286C219.975 22.776 219.507 23.4 218.884 23.868ZM109.987 12.48C108.741 10.608 106.404 9.36001 102.665 9.36001C101.723 9.378 100.784 9.48243 99.8609 9.67201C97.5241 10.14 95.343 11.076 93.6294 12.48C91.3629 14.326 89.7289 16.8348 88.9557 19.656C88.3325 22.464 88.4883 24.804 89.5788 26.832C90.8251 28.86 93.162 29.952 96.9009 29.952C97.9915 29.952 98.9262 29.952 100.017 29.64C102.198 29.2283 104.237 28.2613 105.937 26.832C108.203 24.986 109.837 22.4772 110.61 19.656C111.389 16.848 111.234 14.508 109.987 12.48ZM103.444 19.656C102.977 21.216 102.354 22.464 101.419 23.4C100.951 24.024 99.8609 24.96 98.303 24.96C97.2125 24.96 96.4336 24.492 96.122 23.4C95.7393 22.1814 95.7393 20.8746 96.122 19.656C96.5894 18.096 97.2125 16.848 98.1473 15.756C98.5409 15.3286 99.0249 14.9947 99.564 14.7787C100.103 14.5628 100.684 14.4703 101.263 14.508C102.354 14.508 103.288 14.82 103.6 15.756C103.911 16.848 103.911 18.096 103.444 19.656ZM135.693 15.444H141.457L137.562 29.328H144.884L148.779 15.288H154.076L155.634 9.82801H137.25L135.693 15.444ZM230.724 15.444H236.488L232.749 29.328H239.916L243.966 15.288H249.263L250.821 9.82801H232.438L230.724 15.444ZM69.6378 9.82801L64.1851 29.328H71.5073L75.402 15.288H81.322L77.4273 29.328H84.9051L90.3578 9.82801H69.6378ZM55.7725 23.712C55.4694 24.0222 55.1051 24.2656 54.7027 24.4268C54.3003 24.588 53.8688 24.6633 53.4357 24.648C52.3451 24.648 51.722 24.18 51.4104 23.244C51.0988 22.464 51.0988 21.06 51.722 19.032C52.0934 18.1004 52.5635 17.2113 53.1241 16.38C53.4357 15.756 53.903 15.288 54.5262 14.976C54.9936 14.664 55.6167 14.508 56.2399 14.508C57.1746 14.508 57.642 14.82 57.9536 15.288C58.4209 15.756 58.4209 16.536 58.2652 17.316H65.4315C65.8988 14.508 65.2757 12.324 63.7178 11.076C62.1599 9.98401 59.823 9.51601 57.4862 9.51601C54.3926 9.4247 51.361 10.3963 48.8952 12.2694C46.4295 14.1425 44.6782 16.8042 43.9325 19.812C42.9978 22.932 43.3094 25.428 44.8673 27.3C46.4252 28.86 48.6062 29.796 51.722 29.796C54.3199 29.8707 56.8937 29.28 59.1999 28.08C60.3737 27.4331 61.4277 26.5887 62.3157 25.584C63.0946 24.648 63.8736 23.4 64.4967 21.84H57.0188C56.7073 22.776 56.2399 23.4 55.6167 23.868" fill="#191919"/>
</g>
<defs>
<clipPath id="clip0_902_6">
<rect width="296" height="39" fill="white"/>
</clipPath>
</defs>
</svg>
